<!DOCTYPE svg PUBLIC "-//W3C//DTD SVG 1.1//EN" "http://www.w3.org/Graphics/SVG/1.1/DTD/svg11.dtd">
<!-- Uploaded to: SVG Repo, www.svgrepo.com, Transformed by: SVG Repo Mixer Tools -->
<svg width="800px" height="800px" viewBox="0 0 20 20" version="1.1" xmlns="http://www.w3.org/2000/svg" fill="#ffbe60">
<g id="SVGRepo_bgCarrier" stroke-width="0"/>
<g id="SVGRepo_tracerCarrier" stroke-linecap="round" stroke-linejoin="round"/>
<g id="SVGRepo_iconCarrier"> <g id="layer1"> <path d="M 0 2 L 0 18 L 20 18 L 20 2 L 0 2 z M 1 3 L 19 3 L 19 5 L 1 5 L 1 3 z M 1 6 L 19 6 L 19 17 L 1 17 L 1 6 z M 5.9296875 7.0996094 L 4.9902344 7.4414062 L 8.0683594 15.900391 L 9.0078125 15.556641 L 5.9296875 7.0996094 z M 3 9 L 3 10 L 4 10 L 4 9 L 3 9 z M 3 13 L 3 14 L 4 14 L 4 13 L 3 13 z M 11 14 L 11 15 L 17 15 L 17 14 L 11 14 z " style="fill:#ffbe60; fill-opacity:1; stroke:none; stroke-width:0px;"/> </g> </g>
</svg>